<svg width="512" height="512" viewBox="0 0 512 512" fill="none" xmlns="http://www.w3.org/2000/svg">
<path d="M16 96C16 51.8172 51.8172 16 96 16H176C220.183 16 256 51.8172 256 96V256H96C51.8172 256 16 220.183 16 176V96Z" fill="#34D399"/>
<path d="M256 96C256 51.8172 291.817 16 336 16H416C460.183 16 496 51.8172 496 96V176C496 220.183 460.183 256 416 256H256V96Z" fill="#F87171"/>
<path d="M256 256H416C460.183 256 496 291.817 496 336V416C496 460.183 460.183 496 416 496H336C291.817 496 256 460.183 256 416V256Z" fill="#C084FC"/>
<path d="M16 336C16 291.817 51.8172 256 96 256H256V416C256 460.183 220.183 496 176 496H96C51.8172 496 16 460.183 16 416V336Z" fill="#60A5FA"/>
</svg>
